<svg width="535" height="309" viewBox="0 0 535 309" fill="none" xmlns="http://www.w3.org/2000/svg">
<path d="M264.723 0C279.328 3.94094e-05 291.168 11.8407 291.168 26.4463C291.168 31.9815 289.466 37.1184 286.559 41.3652L286.673 41.2559L534.999 307.829H515.958L288.531 60.1426L446.141 286.408L444.29 287.466L280.809 51.7314L278.475 49.1895L278.816 48.8584L278.8 48.835C278.54 48.9986 278.277 49.1578 278.012 49.3125L406.208 285.879L403.827 285.086L276.58 50.0879C276.109 50.3246 275.63 50.548 275.144 50.7568L359.398 286.408L357.548 287.466L273.517 51.3916C272.429 51.7751 271.309 52.0901 270.161 52.3301L332.688 286.673L330.837 287.73L268.391 52.6367C267.605 52.7457 266.809 52.8219 266.003 52.8604L309.151 284.028H307.564L264.159 52.8838C263.958 52.8796 263.758 52.8729 263.559 52.8643L262.455 60.6875L280.854 284.028H278.739L261.274 69.0557L230.872 284.557L229.021 283.499L260.596 60.7012L260.058 54.0801L207.07 285.086L205.22 284.028L258.64 52.1875C258.331 52.1148 258.024 52.0356 257.72 51.9521L180.36 284.821L178.509 283.764L256.041 51.4316C255.959 51.4032 255.877 51.3749 255.796 51.3457L133.552 284.293L131.7 283.234L254.26 50.7393C254.068 50.6568 253.878 50.5722 253.689 50.4854L93.6182 284.821L91.7666 283.764L249.732 53.5479L23.0078 308.094H0L240.767 37.6572C239.171 34.2532 238.276 30.4544 238.276 26.4463C238.276 11.8407 250.117 0 264.723 0ZM260.331 52.8916H261.703L261.727 52.7207C261.285 52.6709 260.846 52.6104 260.411 52.5391L260.331 52.8916Z" fill="url(#paint0_linear_5_2)"/>
<path d="M57.9797 305.037H60.0954L69.2774 278.295H75.1166L84.2986 305.037H86.4143V307.829H74.0165V305.037H77.4015L75.3705 298.817H65.7231L63.692 305.037H67.0771V307.829H57.9797V305.037ZM66.5693 295.897H74.6089L70.6314 283.457H70.4622L66.5693 295.897Z" fill="url(#paint1_linear_5_2)"/>
<path d="M88.7085 305.037H91.6704V281.087H88.7085V278.295H100.133L112.235 299.324H112.489V281.087H109.527V278.295H118.709V281.087H115.789V307.829H109.611L95.2247 283.245H94.9708V305.037H97.9328V307.829H88.7085V305.037Z" fill="url(#paint2_linear_5_2)"/>
<path d="M122.179 305.037H125.141V281.087H122.179V278.295H135.973C138.004 278.295 139.88 278.633 141.601 279.31C143.35 279.959 144.859 280.918 146.128 282.187C147.398 283.429 148.385 284.966 149.09 286.8C149.824 288.633 150.19 290.721 150.19 293.062C150.19 295.403 149.824 297.491 149.09 299.324C148.385 301.158 147.398 302.709 146.128 303.979C144.859 305.22 143.35 306.179 141.601 306.856C139.88 307.505 138.004 307.829 135.973 307.829H122.179V305.037ZM131.996 304.783H134.746C136.156 304.783 137.355 304.642 138.343 304.36C139.358 304.077 140.176 303.64 140.797 303.048C141.446 302.427 141.911 301.623 142.193 300.636C142.503 299.62 142.659 298.393 142.659 296.955V289.169C142.659 287.73 142.503 286.517 142.193 285.53C141.911 284.515 141.446 283.711 140.797 283.118C140.176 282.498 139.358 282.046 138.343 281.764C137.355 281.482 136.156 281.341 134.746 281.341H131.996V304.783Z" fill="url(#paint3_linear_5_2)"/>
<path d="M168.465 305.206C169.339 305.206 170.157 305.065 170.919 304.783C171.681 304.501 172.343 304.063 172.908 303.471C173.5 302.879 173.965 302.117 174.304 301.186C174.642 300.255 174.812 299.141 174.812 297.843V288.281C174.812 286.983 174.642 285.869 174.304 284.938C173.965 284.007 173.5 283.245 172.908 282.653C172.343 282.06 171.681 281.623 170.919 281.341C170.157 281.059 169.339 280.918 168.465 280.918C167.59 280.918 166.772 281.059 166.011 281.341C165.249 281.623 164.572 282.06 163.98 282.653C163.415 283.245 162.964 284.007 162.626 284.938C162.287 285.869 162.118 286.983 162.118 288.281V297.843C162.118 299.141 162.287 300.255 162.626 301.186C162.964 302.117 163.415 302.879 163.98 303.471C164.572 304.063 165.249 304.501 166.011 304.783C166.772 305.065 167.59 305.206 168.465 305.206ZM168.465 308.337C166.49 308.337 164.657 307.999 162.964 307.321C161.271 306.644 159.805 305.671 158.563 304.402C157.322 303.104 156.349 301.51 155.644 299.62C154.939 297.702 154.586 295.516 154.586 293.062C154.586 290.608 154.939 288.436 155.644 286.546C156.349 284.627 157.322 283.034 158.563 281.764C159.805 280.467 161.271 279.479 162.964 278.802C164.657 278.125 166.49 277.787 168.465 277.787C170.439 277.787 172.273 278.125 173.965 278.802C175.658 279.479 177.125 280.467 178.366 281.764C179.607 283.034 180.58 284.627 181.286 286.546C181.991 288.436 182.344 290.608 182.344 293.062C182.344 295.516 181.991 297.702 181.286 299.62C180.58 301.51 179.607 303.104 178.366 304.402C177.125 305.671 175.658 306.644 173.965 307.321C172.273 307.999 170.439 308.337 168.465 308.337Z" fill="url(#paint4_linear_5_2)"/>
<path d="M186.269 305.037H189.231V281.087H186.269V278.295H202.898C204.195 278.295 205.394 278.436 206.494 278.718C207.595 279 208.54 279.451 209.329 280.072C210.148 280.664 210.782 281.44 211.234 282.399C211.685 283.33 211.911 284.458 211.911 285.784C211.911 286.8 211.741 287.73 211.403 288.577C211.064 289.423 210.599 290.17 210.007 290.819C209.414 291.44 208.723 291.976 207.933 292.427C207.143 292.85 206.283 293.161 205.352 293.358L210.81 302.54C211.375 303.499 211.953 304.162 212.545 304.529C213.166 304.867 213.928 305.037 214.83 305.037H215.042V307.829H211.022C210.035 307.829 209.174 307.759 208.441 307.618C207.707 307.448 207.059 307.195 206.494 306.856C205.93 306.518 205.437 306.094 205.014 305.587C204.59 305.079 204.195 304.458 203.829 303.725L199.259 294.754H196.085V305.037H199.047V307.829H186.269V305.037ZM196.085 291.877H200.317C203.335 291.877 204.844 290.537 204.844 287.857V285.361C204.844 282.681 203.335 281.341 200.317 281.341H196.085V291.877Z" fill="url(#paint5_linear_5_2)"/>
<path d="M217.384 305.037H220.346V281.087H217.384V278.295H234.013C235.311 278.295 236.51 278.436 237.61 278.718C238.71 279 239.655 279.451 240.445 280.072C241.263 280.664 241.897 281.44 242.349 282.399C242.8 283.33 243.026 284.458 243.026 285.784C243.026 286.8 242.856 287.73 242.518 288.577C242.179 289.423 241.714 290.17 241.122 290.819C240.529 291.44 239.838 291.976 239.048 292.427C238.258 292.85 237.398 293.161 236.467 293.358L241.926 302.54C242.49 303.499 243.068 304.162 243.66 304.529C244.281 304.867 245.043 305.037 245.945 305.037H246.157V307.829H242.137C241.15 307.829 240.289 307.759 239.556 307.618C238.823 307.448 238.174 307.195 237.61 306.856C237.045 306.518 236.552 306.094 236.129 305.587C235.706 305.079 235.311 304.458 234.944 303.725L230.374 294.754H227.201V305.037H230.163V307.829H217.384V305.037ZM227.201 291.877H231.432C234.45 291.877 235.959 290.537 235.959 287.857V285.361C235.959 282.681 234.45 281.341 231.432 281.341H227.201V291.877Z" fill="url(#paint6_linear_5_2)"/>
<path d="M247.77 305.037H249.885L259.067 278.295H264.907L274.089 305.037H276.204V307.829H263.807V305.037H267.192L265.161 298.817H255.513L253.482 305.037H256.867V307.829H247.77V305.037ZM256.359 295.897H264.399L260.421 283.457H260.252L256.359 295.897Z" fill="url(#paint7_linear_5_2)"/>
<path d="M288.333 305.037H291.295V281.087H288.333V278.295H301.323V281.087H298.15V304.783H306.189V299.113H311.098V307.829H288.333V305.037Z" fill="url(#paint8_linear_5_2)"/>
<path d="M313.43 305.037H315.545L324.727 278.295H330.567L339.749 305.037H341.864V307.829H329.467V305.037H332.852L330.821 298.817H321.173L319.142 305.037H322.527V307.829H313.43V305.037ZM322.019 295.897H330.059L326.081 283.457H325.912L322.019 295.897Z" fill="url(#paint9_linear_5_2)"/>
<path d="M355.051 281.087H352.935V278.295H365.375V281.087H361.99L365.841 293.612L368.337 302.667H368.591L371.257 293.612L375.234 281.087H371.849V278.295H380.947V281.087H378.831L369.861 307.829H364.021L355.051 281.087Z" fill="url(#paint10_linear_5_2)"/>
<path d="M383.373 305.037H386.335V281.087H383.373V278.295H406.941V286.165H402.033V281.341H393.189V290.904H398.775V288.365H401.906V296.489H398.775V293.95H393.189V304.783H402.371V299.113H407.28V307.829H383.373V305.037Z" fill="url(#paint11_linear_5_2)"/>
<path d="M411.223 305.037H414.185V281.087H411.223V278.295H424.214V281.087H421.04V304.783H429.08V299.113H433.988V307.829H411.223V305.037Z" fill="url(#paint12_linear_5_2)"/>
<path d="M437.463 305.037H440.425V281.087H437.463V278.295H450.453V281.087H447.279V304.783H455.319V299.113H460.227V307.829H437.463V305.037Z" fill="url(#paint13_linear_5_2)"/>
<path d="M462.559 305.037H464.675L473.857 278.295H479.696L488.878 305.037H490.994V307.829H478.596V305.037H481.981L479.95 298.817H470.303L468.272 305.037H471.657V307.829H462.559V305.037ZM471.149 295.897H479.189L475.211 283.457H475.042L471.149 295.897Z" fill="url(#paint14_linear_5_2)"/>
<path d="M270 12.119C270 17.7076 254.63 36 249.439 36C244.247 36 240.038 31.4695 240.038 25.881C239.286 17.381 249.695 3.21429 260.6 2C265.791 2 270 6.53045 270 12.119Z" fill="url(#paint15_linear_5_2)"/>
<defs>
<linearGradient id="paint0_linear_5_2" x1="269.615" y1="0" x2="269.615" y2="309.945" gradientUnits="userSpaceOnUse">
<stop stop-color="#0C0076"/>
<stop offset="1" stop-color="#0C0076"/>
</linearGradient>
<linearGradient id="paint1_linear_5_2" x1="274.487" y1="277.787" x2="274.487" y2="308.337" gradientUnits="userSpaceOnUse">
<stop stop-color="white"/>
<stop offset="1" stop-color="#999999"/>
</linearGradient>
<linearGradient id="paint2_linear_5_2" x1="274.487" y1="277.787" x2="274.487" y2="308.337" gradientUnits="userSpaceOnUse">
<stop stop-color="white"/>
<stop offset="1" stop-color="#999999"/>
</linearGradient>
<linearGradient id="paint3_linear_5_2" x1="274.487" y1="277.787" x2="274.487" y2="308.337" gradientUnits="userSpaceOnUse">
<stop stop-color="white"/>
<stop offset="1" stop-color="#999999"/>
</linearGradient>
<linearGradient id="paint4_linear_5_2" x1="274.487" y1="277.787" x2="274.487" y2="308.337" gradientUnits="userSpaceOnUse">
<stop stop-color="white"/>
<stop offset="1" stop-color="#999999"/>
</linearGradient>
<linearGradient id="paint5_linear_5_2" x1="274.487" y1="277.787" x2="274.487" y2="308.337" gradientUnits="userSpaceOnUse">
<stop stop-color="white"/>
<stop offset="1" stop-color="#999999"/>
</linearGradient>
<linearGradient id="paint6_linear_5_2" x1="274.487" y1="277.787" x2="274.487" y2="308.337" gradientUnits="userSpaceOnUse">
<stop stop-color="white"/>
<stop offset="1" stop-color="#999999"/>
</linearGradient>
<linearGradient id="paint7_linear_5_2" x1="274.487" y1="277.787" x2="274.487" y2="308.337" gradientUnits="userSpaceOnUse">
<stop stop-color="white"/>
<stop offset="1" stop-color="#999999"/>
</linearGradient>
<linearGradient id="paint8_linear_5_2" x1="274.487" y1="277.787" x2="274.487" y2="308.337" gradientUnits="userSpaceOnUse">
<stop stop-color="white"/>
<stop offset="1" stop-color="#999999"/>
</linearGradient>
<linearGradient id="paint9_linear_5_2" x1="274.487" y1="277.787" x2="274.487" y2="308.337" gradientUnits="userSpaceOnUse">
<stop stop-color="white"/>
<stop offset="1" stop-color="#999999"/>
</linearGradient>
<linearGradient id="paint10_linear_5_2" x1="274.487" y1="277.787" x2="274.487" y2="308.337" gradientUnits="userSpaceOnUse">
<stop stop-color="white"/>
<stop offset="1" stop-color="#999999"/>
</linearGradient>
<linearGradient id="paint11_linear_5_2" x1="274.487" y1="277.787" x2="274.487" y2="308.337" gradientUnits="userSpaceOnUse">
<stop stop-color="white"/>
<stop offset="1" stop-color="#999999"/>
</linearGradient>
<linearGradient id="paint12_linear_5_2" x1="274.487" y1="277.787" x2="274.487" y2="308.337" gradientUnits="userSpaceOnUse">
<stop stop-color="white"/>
<stop offset="1" stop-color="#999999"/>
</linearGradient>
<linearGradient id="paint13_linear_5_2" x1="274.487" y1="277.787" x2="274.487" y2="308.337" gradientUnits="userSpaceOnUse">
<stop stop-color="white"/>
<stop offset="1" stop-color="#999999"/>
</linearGradient>
<linearGradient id="paint14_linear_5_2" x1="274.487" y1="277.787" x2="274.487" y2="308.337" gradientUnits="userSpaceOnUse">
<stop stop-color="white"/>
<stop offset="1" stop-color="#999999"/>
</linearGradient>
<linearGradient id="paint15_linear_5_2" x1="237.475" y1="6.04762" x2="258.987" y2="22.7016" gradientUnits="userSpaceOnUse">
<stop stop-color="#D9D9D9"/>
<stop offset="1" stop-color="#0B0072"/>
</linearGradient>
</defs>
</svg>
