<svg width="114" height="452" viewBox="0 0 114 452" fill="none" xmlns="http://www.w3.org/2000/svg">
<path d="M5.01389 284.084V452H102.917V104.815L114 85.278H100.014L56.2083 36.6986V8.18458H64.125V6.07243H56.2083V0H53.8333V6.07243H44.8611V8.18458H53.8333V36.6986L22.4306 85.278H10.0278L0 110.36L5.01389 115.112H13.1944V259.002L5.01389 284.084Z" fill="url(#paint0_linear_2_53)"/>
<path d="M51.5 157.5H34V126.404C34 122.202 36.5735 118 42.75 118C49.4412 118 51.5 122.202 51.5 126.404V157.5Z" fill="white"/>
<path d="M87.5 157.5H70V126.404C70 122.202 72.5735 118 78.75 118C85.4412 118 87.5 122.202 87.5 126.404V157.5Z" fill="white"/>
<path d="M51.5 210.5H34V179.404C34 175.202 36.5735 171 42.75 171C49.4412 171 51.5 175.202 51.5 179.404V210.5Z" fill="white"/>
<path d="M87.5 210.5H70V179.404C70 175.202 72.5735 171 78.75 171C85.4412 171 87.5 175.202 87.5 179.404V210.5Z" fill="white"/>
<path d="M51.5 210.5H34V179.404C34 175.202 36.5735 171 42.75 171C49.4412 171 51.5 175.202 51.5 179.404V210.5Z" fill="white"/>
<path d="M87.5 210.5H70V179.404C70 175.202 72.5735 171 78.75 171C85.4412 171 87.5 175.202 87.5 179.404V210.5Z" fill="white"/>
<path d="M51.5 265.5H34V234.404C34 230.202 36.5735 226 42.75 226C49.4412 226 51.5 230.202 51.5 234.404V265.5Z" fill="white"/>
<path d="M87.5 265.5H70V234.404C70 230.202 72.5735 226 78.75 226C85.4412 226 87.5 230.202 87.5 234.404V265.5Z" fill="white"/>
<path d="M51.5 318.5H34V287.404C34 283.202 36.5735 279 42.75 279C49.4412 279 51.5 283.202 51.5 287.404V318.5Z" fill="white"/>
<path d="M87.5 318.5H70V287.404C70 283.202 72.5735 279 78.75 279C85.4412 279 87.5 283.202 87.5 287.404V318.5Z" fill="white"/>
<defs>
<linearGradient id="paint0_linear_2_53" x1="57" y1="0" x2="57" y2="452" gradientUnits="userSpaceOnUse">
<stop stop-color="#1200B2"/>
<stop offset="1" stop-color="#08004C"/>
</linearGradient>
</defs>
</svg>
