<svg width="3426" height="629" viewBox="0 0 3426 629" fill="none" xmlns="http://www.w3.org/2000/svg">
<path d="M114.073 407.123L0 443.974V628.232H3425.7V443.974L3407.5 450L3378.5 443.974H3330L3312.5 422.916L3234.4 405.368L3166.84 416.774L3083.48 405.368L3028.2 382.555L2984.32 366.761L2952.73 351.845L2888.68 339.561L2853.58 329.032L2809.7 322.013L2783.38 296.568H2767.58L2710.55 272L2681.59 262.348L2639.47 243.045L2600.86 226.374L2580.68 243.045L2550.84 272H2528.03L2495.56 280.774L2451.69 303.587L2414.83 312.361L2374.47 322.013H2344.64L2322.7 312.361L2291.11 322.013L2264.78 312.361H2220.91L2206.87 322.013L2177.04 332.542L2122.63 344.826L2109.47 332.542L2072.62 322.013L2047.17 303.587L1981.36 272L1970.83 255.329L1932.22 243.045L1892.73 226.374L1868.16 175.484L1855.88 156.181L1813.76 134.245L1760.23 124.594L1740.93 99.1484L1722.5 74.5806L1678.63 48.2581L1657.57 0H1635.63L1609.3 14.0387L1595.26 32.4645L1560.17 48.2581L1530.33 67.5613L1508.39 74.5806H1496.11L1484.7 92.129L1468.91 108.8L1441.71 141.265L1404.85 156.181L1352.2 198.297H1339.04H1312.72L1299.55 208.826L1259.19 198.297L1239.01 185.135L1214.44 175.484L1195.13 185.135H1173.2L1156.52 175.484L1146.87 166.71L1122.3 141.265H1109.14H1083.69L1069.65 108.8L1060.88 99.1484L1047.72 85.9871L1031.92 92.129L1013.49 108.8L981.904 141.265L956.457 175.484L888.891 236.903L859.056 249.187H845.894L827.467 272L773.94 314.116L737.964 329.032L705.497 314.116L686.192 307.097H642.318L607.219 314.116L575.629 336.929H548.427H515.083L488.758 351.845L451.026 344.826L415.927 351.845L370.298 379.923H315.894H251.838L114.073 407.123Z" fill="url(#paint0_linear_2_6)"/>
<defs>
<linearGradient id="paint0_linear_2_6" x1="1722.5" y1="0" x2="1722.5" y2="680" gradientUnits="userSpaceOnUse">
<stop stop-color="#1800F2"/>
<stop offset="1" stop-color="#2C0034"/>
</linearGradient>
</defs>
</svg>
