<svg width="3109" height="626" viewBox="0 0 3109 626" fill="none" xmlns="http://www.w3.org/2000/svg">
<path d="M39 275L0 228.5V626H3108.84V228.5L3082.85 187.5L3064.5 149.5L3029.45 145.5L2991.51 140L2962.71 154.5L2933.2 177.5L2878.4 164L2787.77 140L2756.86 145.5L2710.49 169.5C2699.01 164.333 2675.78 153.5 2674.66 151.5C2673.53 149.5 2668.1 137 2665.52 131L2616.34 77.5V54L2509.55 0L2475.83 46L2453.35 50.5L2404.17 69.5L2366.93 81.5L2333.91 98L2292.46 92.5L2240.47 107L2217.29 131L2187.78 154L2145.63 161.5L2069.75 141.5L2033.92 131L1993.87 110L1958.04 102L1929.24 110L1908.16 123.5L1864.6 120.5L1780.29 74L1736.03 91L1703.72 94L1674.21 102L1641.89 125.5L1616.6 144L1561.8 158.5L1512.62 180L1461.33 194L1410.04 203.5L1367.89 187.5L1270.94 173.5L1255.48 170.5L1239.32 158.5L1182.41 152L1138.85 146.5H1098.11L1061.57 156.5L987.101 173.5L970.942 170.5L947.055 158.5L919.655 149.5L896.47 143L868.368 146.5H857.127L840.265 156.5L814.973 173.5H795.301L759.471 156.5L722.937 137.5L703.266 116L677.973 83.5L651.276 58L637.225 53.5L609.122 49.5L574.696 44L552.214 60.5L513.573 77L462.286 94L430.671 101L411.702 116L387.815 122.5L354.794 128H338.635L299.292 137.5L278.215 151.5L236.764 159.5L191.097 151.5H154.564L118.031 159.5L60.5 203.5L39 275Z" fill="url(#paint0_linear_2_10)"/>
<defs>
<linearGradient id="paint0_linear_2_10" x1="1562.5" y1="0" x2="1562.5" y2="626" gradientUnits="userSpaceOnUse">
<stop stop-color="#0A0068"/>
<stop offset="1" stop-color="#AF00CE"/>
</linearGradient>
</defs>
</svg>
