<svg width="969" height="936" viewBox="0 0 969 936" fill="none" xmlns="http://www.w3.org/2000/svg">
<path d="M58.9734 712.417L57.3171 690.884L55.6607 671.835V655.272L54.8325 639.536L54.0043 629.598L55.6607 621.316V616.347L56.4889 606.408V598.126V587.36L58.1452 581.563V575.765V568.311L58.9734 562.514L58.1452 558.373L56.4889 553.404L55.6607 543.466L54.8325 537.668L55.6607 531.043V526.902L58.9734 517.792L67.2554 507.853L72.2245 503.712L82.991 501.228H97.0703L126.057 502.884L162.497 506.197L168.295 507.025L189 511.166L206.392 513.651L220.471 518.62L244.488 521.933L250.286 523.589L254.427 521.105L261.88 519.448L267.678 523.589L277.616 524.417L287.554 521.933V520.276L290.039 511.166L290.867 502.884L294.18 493.774L298.321 487.149L308.259 472.241L304.946 464.787L299.977 447.395L295.836 429.175L291.695 404.329L290.039 407.642L283.413 414.268L274.303 421.721L268.506 429.175L264.365 434.973L261.052 441.598L254.427 455.677L246.973 469.757L237.035 486.32L234.55 494.602L239.519 501.228L243.66 507.853L244.488 516.964L243.66 521.105L232.894 519.448L221.299 517.792L206.392 512.823L189 510.338L174.92 507.853L168.295 506.197L169.123 503.712L177.405 490.461L186.515 478.867L195.625 465.616L200.594 452.365L207.22 439.114L213.017 420.065L222.127 398.532L233.722 375.343L241.176 354.638L248.629 338.902L253.599 327.308L255.255 319.854L257.74 303.29L261.052 295.008L267.678 280.929L281.757 267.678L290.867 262.709L279.272 258.568L260.224 251.114L244.488 246.145V250.286V256.911L242.832 262.709L239.519 269.334L232.894 278.444L226.268 285.07L222.955 294.18L220.471 301.634V312.4L219.643 317.369L215.502 321.51L211.361 320.682L207.22 318.198L205.563 309.087V299.977L208.876 292.185L213.017 285.898L214.674 276.788L208.876 275.96H200.594L190.656 278.444L189.828 280.101L193.141 283.413L198.11 282.585L203.079 283.413L206.392 287.554L205.563 290.867H198.938L187.343 289.211L184.03 290.867L191.484 295.836L198.938 299.149L203.079 303.29V309.087C203.079 309.75 200.87 309.363 199.766 309.087L191.484 306.603L183.202 301.634L186.515 306.603L194.797 315.713L198.938 320.682L198.11 325.651L195.625 328.136L191.484 326.479L185.687 321.51L178.233 314.885L173.264 309.087V316.541L172.436 321.51L169.123 324.823L165.81 327.308L161.669 323.995L160.013 318.198V312.4L160.841 304.946L162.497 295.008L164.154 285.07L164.982 276.788V265.193L165.81 260.224L169.123 256.083L191.484 237.863L204.735 226.268L211.361 222.127L217.986 217.158C222.403 216.606 231.403 215.502 232.066 215.502H246.145L270.991 218.814L308.259 221.299L317.369 222.955L330.62 227.096H341.387L355.466 231.237L376.171 237.035L384.453 237.863C386.385 236.483 390.416 233.556 391.078 232.894C391.741 232.231 395.219 227.649 396.876 225.44L411.783 217.986L412.611 213.017L408.47 204.735L404.329 196.453L398.532 192.312L391.078 189.828H385.281L377.827 194.797L366.233 198.11L358.779 199.766L349.669 195.625C348.288 194.521 345.528 192.147 345.528 191.484C345.528 190.822 344.424 186.791 343.871 184.859L342.215 177.405L340.559 174.092L338.074 171.608L334.761 169.123V165.81L335.59 164.154L333.933 161.669V158.356L336.418 153.387L335.59 150.903L333.105 148.418L330.62 150.903H325.651L321.51 145.934V140.136L333.105 111.978V107.009L330.62 99.5548L325.651 90.4447V85.4756L330.62 82.991L335.59 76.3655V67.2554L330.62 71.3963V63.9426L333.105 49.0351L335.59 39.925L338.902 32.4713L344.7 25.8458L361.263 16.7356L373.686 9.28192L387.766 3.48458L401.845 1H418.409H434.973L450.708 3.48458L463.959 9.28192L476.382 18.392L483.008 25.8458L488.805 34.9559L492.946 41.5814V49.0351L497.087 58.1452L498.743 67.2554L501.228 80.5064V90.4447L497.087 101.211L492.946 107.009V121.088L486.32 129.37L474.726 145.934V155.044L466.444 156.7V163.326L480.523 178.233L492.946 192.312L503.712 194.797L510.338 198.938L522.761 211.361L534.356 224.612L543.466 234.55L549.263 251.114L554.232 265.193V280.101V295.836V321.51L549.263 343.043L543.466 372.858L549.263 382.796L560.858 412.611L568.311 442.426L579.906 468.1L588.188 476.382L591.501 492.118L598.126 509.51L608.893 547.607V590.673L607.237 640.364L604.752 690.884L608.893 696.681L620.488 698.338H635.395L651.959 705.791L662.725 707.448H678.461H696.681H703.307L704.963 714.073L696.681 716.558L708.276 722.355H725.668L739.747 724.84L745.545 727.324V733.95L739.747 739.747L743.06 741.404L762.108 748.857L771.219 752.17V759.624L767.078 764.593H748.857L711.589 755.483C715.73 757.967 724.343 763.268 725.668 764.593C727.324 766.249 748.857 772.875 757.139 775.359C765.421 777.844 758.796 780.329 758.796 781.985C758.796 783.641 753.826 787.782 751.342 789.439C748.857 791.095 732.293 786.126 725.668 784.47C719.042 782.813 668.523 767.906 671.007 768.734C673.492 769.562 676.805 774.531 682.602 780.329C688.399 786.126 692.54 799.377 674.32 799.377C656.1 799.377 666.866 798.549 661.069 795.236C655.272 791.923 645.333 786.954 638.708 781.985C632.082 777.016 618.003 777.016 593.985 759.624C569.968 742.232 574.937 729.809 572.452 724.84C569.968 719.871 567.483 712.417 565.827 699.994C564.171 687.571 560.03 670.179 558.373 666.038C556.717 661.897 540.981 604.752 531.871 577.422C524.583 555.557 522.209 515.307 521.933 497.915L497.087 469.757C489.081 478.867 473.069 497.75 473.069 500.4V516.135C473.069 519.448 461.475 544.294 458.162 550.091C454.849 555.889 442.426 567.483 441.598 569.14C440.77 570.796 439.942 575.765 439.114 579.078C438.285 582.391 416.752 606.408 409.299 619.659C401.845 632.91 378.656 650.302 348.841 652.787C319.026 655.272 285.07 642.849 279.272 642.021C274.635 641.358 220.471 625.733 193.969 618.003L190.656 613.034L163.326 601.439L145.934 593.985H131.854C132.406 598.402 133.511 608.727 133.511 614.69C133.511 622.144 131.854 646.99 126.885 656.1C122.91 663.388 114.186 672.388 110.321 675.976L107.009 680.946L104.524 699.994V732.293V733.95C104.524 737.539 105.352 745.71 108.665 749.685C112.806 754.655 110.321 753.826 112.806 761.28C115.29 768.734 111.15 769.562 110.321 774.531C109.493 779.5 107.009 777.844 104.524 781.985C102.039 786.126 94.5857 786.954 92.1011 788.611C89.6165 790.267 82.991 789.439 73.8809 788.611C64.7708 787.782 58.9734 786.954 54.8325 785.298C50.6915 783.641 49.8633 782.813 48.2069 781.985C46.5506 781.157 41.5814 781.157 38.2686 780.329C34.9559 779.5 32.4713 781.157 23.3612 785.298C21.5413 786.078 20.6192 786.368 20.1848 786.45C20.2053 786.542 20.1759 786.699 20.0484 786.954C19.2202 788.611 17.5638 791.923 14.2511 792.751C10.9383 793.58 9.28192 792.751 2.65638 786.954C1.89643 784.674 1.46335 784.101 1.23217 784.236C1.1482 784.626 1.0697 784.984 1 785.298C1 784.827 1.06026 784.336 1.23217 784.236C1.81334 781.538 2.65638 777.345 2.65638 776.188V772.047V767.078V761.28C5.41702 757.139 10.1101 748.692 6.79734 748.029C2.65638 747.201 1.82819 740.575 4.31277 735.606C6.30043 731.631 13.975 731.741 17.5638 732.293L29.1585 735.606C49.8633 735.606 50.6915 729.809 54.8325 725.668C58.1452 722.355 58.9734 715.454 58.9734 712.417Z" fill="black" stroke="black"/>
<path d="M193.969 782.813L387.766 883.024L936.029 935.201L967.5 778.672L928.575 762.937L932.716 748.857L944.311 751.342L951.764 748.857L949.28 733.122L936.029 728.981L940.998 709.104L908.698 699.994L902.901 718.214L892.963 714.901L887.994 724.84V734.778L897.104 737.263L891.306 752.998L859.835 743.06L867.289 718.214L337.246 535.184L193.969 608.065V782.813Z" fill="black" stroke="black"/>
</svg>
